<?xml version="1.0" encoding="utf-8"?>
<!-- Generator: Adobe Illustrator 23.0.2, SVG Export Plug-In . SVG Version: 6.00 Build 0)  -->
<svg version="1.1" id="Layer_1" xmlns="http://www.w3.org/2000/svg" xmlns:xlink="http://www.w3.org/1999/xlink" x="0px" y="0px"
	 viewBox="0 0 201 35.5" style="enable-background:new 0 0 201 35.5;" xml:space="preserve">
<style type="text/css">
	.st0{fill:#FFFFFF;}
	.st1{fill:#000066;}
	.st2{fill:#CF102D;}
</style>
<g>
	<rect x="0.5" y="0.5" class="st0" width="35" height="35"/>
	<g>
		<path class="st1" d="M55.2,9H44c0.5,0.3,1,1.2,1,2v14.1c0,0.8-0.7,1.8-1,1.9h9.4c-0.3-0.1-1-1.1-1-1.9v-4.6l3.6,0
			c2.3,0,6.6-0.8,6.6-5.8C62.5,10.9,60,9,55.2,9z M52.4,18.5l0-7.5C54,11,56,11,56,14.8C56,18.5,53.6,18.5,52.4,18.5z"/>
		<path class="st1" d="M74.8,8.6c-6,0-10.8,3.5-10.8,9.4c0,2.4,1.2,9.4,11,9.4c5.7,0,10.8-2.7,10.8-9.4C85.7,12.6,81.6,8.6,74.8,8.6
			z M74.9,25.4c-1.9,0-3.6-2.2-3.6-7.4c0-4.7,1.2-7.4,3.6-7.4c2.5,0,3.7,2.5,3.7,7.4C78.5,22.3,77.5,25.4,74.9,25.4z"/>
		<path class="st1" d="M98.2,9H87c0.4,0.3,1,1.2,1,2v14.1c0,0.8-0.7,1.8-1,1.9h9.4c-0.3-0.1-1-1.1-1-1.9v-4.6l3.6,0
			c2.3,0,6.6-0.8,6.6-5.8C105.5,10.9,103,9,98.2,9z M95.3,18.5l0-7.5C97,11,99,11,99,14.8C99,18.5,96.6,18.5,95.3,18.5z"/>
		<path class="st1" d="M142,24.4h-5.8V10.8c0.1-0.8,0.6-1.5,1.1-1.8h-9.4c0.5,0.2,1,1.2,1,2v14.1c0,0.8-0.7,1.7-1,1.9h15.8l1.8-4.1
			C144.7,23.7,143.9,24.3,142,24.4z"/>
		<path class="st1" d="M174.5,18.1l5.4,8.9h9.4c-0.7-0.2-2-2.3-2.6-3.1c-0.6-0.8-1.9-2.7-2.3-3.2c-1.1-1.5-1.6-2.1-2.1-2.4
			c0,0,0,0,0,0c2.3-0.6,3.5-2.4,3.5-4.7c0-2.3-1.4-4.6-5.9-4.6H166c0.8,0.9,1,1.5,1,2.8v13.6c0,0.2,0,1-0.5,1
			c-0.3,0-0.4-0.1-0.7-0.5l-7-17h-7.8c0.3,0.4,0.9,1,0.5,2.2L146,24.7c-0.6,1.3-1.1,1.8-1.7,2.3h4.6c-0.2-0.3-0.4-1.3,0.1-2.5
			l0.8-2.1h6.8l0.8,2.2c0.3,0.8,0.2,1.7-0.2,2.3h18.2c-0.2-0.2-0.9-0.7-0.9-1.7L174.5,18.1L174.5,18.1z M174.5,11h1.1
			c2.8,0,3,1.8,3,3.2c0,2-1.1,3.4-3.2,3.4h-1V11z M150.6,20.2l2.6-6.8l0,0l2.5,6.8L150.6,20.2z"/>
		<path class="st1" d="M122,9c0.5,0.3,0.9,1.1,0.9,1.8l0,9.3c0,2-1.2,4.2-4.3,4.2c-2.3,0-4.1-1.4-4.1-4.2v-9c0-0.5,0.2-1.6,1-2.1
			h-9.4c0.4,0.4,1,1.2,1,2v9.3c0,4,3.2,7.2,9.4,7.2c3.4,0,5.7-0.7,7.2-2.3c1-1,1.9-2.7,1.9-5.1l0-9c0-0.7,0.3-1.5,1-2.1H122z"/>
	</g>
	<path class="st2" d="M0,0v36h36V0H0z M7.9,25.4v-7C11.2,20.1,10.9,23.9,7.9,25.4z M7.9,17.1v-6.6C10.8,11.6,11.3,15.4,7.9,17.1z
		 M9.7,17.7L9.7,17.7c0,0,1.6-1,2-3v6C11.4,18.9,10,17.9,9.7,17.7z M13.5,6.9c4.1,2.6,4.4,10.6,0,13.7V6.9z M18,16.1v15.9
		c-1.6,0-3-0.3-4.4-0.7v-8.8C14.6,21.9,17.2,20,18,16.1z M19.7,5.9c4.7,2.9,4.5,11.3,0,14.5V5.9z M24.2,16.7v13.8
		c-1.4,0.7-2.9,1.1-4.4,1.3v-9.4C20.8,21.8,23.1,20,24.2,16.7z M20.2,4.3c1.4,0.2,2.7,0.7,3.9,1.3v3.7C23.5,7.2,22.2,5.6,20.2,4.3z
		 M25.9,8.1c3.2,2.3,3.8,8.2,0,11.2V8.1z M18,11.4c-0.5-2.7-2-4.8-4.3-6.7C15,4.3,16.5,4.1,18,4.1V11.4z M11.8,5.5v7.3
		c-0.5-2.4-2.7-3.7-4.2-4.2C8.8,7.4,10.2,6.3,11.8,5.5z M6.2,10.6v14.8C4.8,23.3,4,20.7,4,18C4,15.3,4.8,12.7,6.2,10.6z M7.6,27.3
		c0,0,0.1,0,0.1,0l0,0c0,0,0,0,0,0c0.1,0,0.2-0.1,0.2-0.1v0c1.8-0.7,3.4-2.3,3.8-4.6v7.9C10.2,29.7,8.8,28.6,7.6,27.3z M25.9,29.4
		v-8.5l2.9,5.8C28,27.8,27,28.7,25.9,29.4z M29.9,25.1l-2.5-5l0,0c1.2-1.2,2.7-3,2.7-6c0-1.6-0.3-2.9-0.8-4c1.6,2.3,2.5,5,2.5,7.9
		C31.9,20.6,31.2,23,29.9,25.1z"/>
	<path class="st1" d="M195.3,20.7h1.1c0.7,0,1.2,0.2,1.2,0.8c0,0.7-0.5,0.9-1.2,0.9h-1.1V20.7z M194.3,25.6h0.9v-2.5h0.8l1.6,2.5h1
		l-1.6-2.5c0.9,0,1.5-0.6,1.5-1.6c0-1.1-0.6-1.6-1.9-1.6h-2.2V25.6z M191.4,22.8c0,2.7,2.1,4.8,4.8,4.8c2.7,0,4.8-2.1,4.8-4.8
		c0-2.7-2.1-4.8-4.8-4.8C193.5,18,191.4,20.1,191.4,22.8z M192.3,22.8c0-2.3,1.7-3.9,3.9-3.9c2.2,0,3.9,1.7,3.9,3.9
		c0,2.3-1.7,3.9-3.9,3.9C194,26.7,192.3,25,192.3,22.8z"/>
</g>
</svg>
